<svg xmlns="http://www.w3.org/2000/svg" width="21" height="21" viewBox="0 0 21 21">
  <path id="ico_login" d="M-622.039,426.971a10.512,10.512,0,0,1,10.5-10.5,10.511,10.511,0,0,1,10.5,10.5,10.511,10.511,0,0,1-10.5,10.5A10.512,10.512,0,0,1-622.039,426.971Zm16.7,6.676a9.094,9.094,0,0,0,2.916-6.676,9.128,9.128,0,0,0-9.118-9.117,9.127,9.127,0,0,0-9.118,9.117,9.092,9.092,0,0,0,2.914,6.674,6.517,6.517,0,0,1,3.054-4.918,4.218,4.218,0,0,0,3.212,1.637,4.2,4.2,0,0,0,3.17-1.587A6.52,6.52,0,0,1-605.336,433.647Zm-9.693-9.292a3.414,3.414,0,0,1,3.491-3.527,3.414,3.414,0,0,1,3.49,3.527c0,2.1-1.562,4.09-3.49,4.09S-615.029,426.458-615.029,424.355Z" transform="translate(622.039 -416.471)" fill="#fff"/>
</svg>
